<?xml version="1.0" encoding="UTF-8" standalone="no"?>
<!-- Generator: Adobe Illustrator 24.0.3, SVG Export Plug-In . SVG Version: 6.00 Build 0)  -->

<svg
   version="1.1"
   id="Calque_1"
   x="0px"
   y="0px"
   viewBox="0 0 361.57 71.83"
   style="enable-background:new 0 0 361.57 71.83;"
   xml:space="preserve"
   sodipodi:docname="IRBA_Logo.svg"
   inkscape:version="1.1.2 (1:1.1+202202050950+0a00cf5339)"
   xmlns:inkscape="http://www.inkscape.org/namespaces/inkscape"
   xmlns:sodipodi="http://sodipodi.sourceforge.net/DTD/sodipodi-0.dtd"
   xmlns="http://www.w3.org/2000/svg"
   xmlns:svg="http://www.w3.org/2000/svg"><defs
   id="defs73" /><sodipodi:namedview
   id="namedview71"
   pagecolor="#ffffff"
   bordercolor="#666666"
   borderopacity="1.0"
   inkscape:pageshadow="2"
   inkscape:pageopacity="0.0"
   inkscape:pagecheckerboard="0"
   showgrid="false"
   inkscape:zoom="4.7210775"
   inkscape:cx="60.685299"
   inkscape:cy="36.008729"
   inkscape:window-width="1920"
   inkscape:window-height="1007"
   inkscape:window-x="833"
   inkscape:window-y="1080"
   inkscape:window-maximized="1"
   inkscape:current-layer="Calque_1" />
<style
   type="text/css"
   id="style58">
	.st0{fill:#4AA2D8;}
	.st1{fill:#49A1D8;}
	.st2{fill:#4AA1D8;}
	.st3{fill:#49A1D7;}
</style>
<g
   id="g68"
   transform="matrix(1.3416083,0,0,1.5741866,-123.51393,-41.272588)">
	<path
   class="st0"
   d="m 230.04,34.77 c 1.59,0.69 2.92,1.15 4.14,1.82 3.84,2.1 6.55,5.12 7.09,9.64 0.53,4.39 0.49,8.8 0.05,13.19 -0.49,4.94 -3.42,8.17 -7.89,10.06 -4.13,1.74 -8.52,2.29 -12.93,2.31 -19.46,0.08 -38.92,0 -58.37,0.09 -2.37,0.01 -2.91,-0.76 -2.91,-3 0.07,-21.96 0.08,-43.92 0,-65.88 -0.01,-2.24 0.52,-2.96 2.88,-2.95 20.95,0.1 41.91,0.06 62.86,0.05 2.59,0 5.15,0.25 7.62,1.04 5.2,1.66 7.82,4.92 8.06,10.43 0.18,4.15 0.18,8.32 0.01,12.47 -0.15,3.67 -2.02,6.47 -5.23,8.26 -1.58,0.89 -3.3,1.53 -5.38,2.47 z m -31.38,5.68 c 0,0.04 0,0.07 0,0.11 -6.4,0 -12.8,0.05 -19.2,-0.03 -1.67,-0.02 -2.37,0.38 -2.33,2.2 0.11,4.57 0.11,9.14 0,13.71 -0.05,1.86 0.58,2.47 2.43,2.44 6.23,-0.09 12.46,0.03 18.7,-0.05 6.97,-0.09 13.96,0.38 20.92,-0.33 3.55,-0.36 5.22,-2.07 5.4,-5.62 0.08,-1.58 0.04,-3.16 0.03,-4.74 -0.02,-6.03 -1.78,-7.74 -7.76,-7.71 -6.06,0.04 -12.13,0.02 -18.19,0.02 z m 0.52,-28.48 c 0,-0.03 0,-0.05 0,-0.08 -6.66,0 -13.31,0.04 -19.96,-0.03 -1.6,-0.02 -2.21,0.49 -2.18,2.14 0.09,3.99 0.13,7.99 -0.02,11.98 -0.08,2.06 0.56,2.7 2.65,2.68 10.31,-0.1 20.63,-0.04 30.95,-0.05 2.66,0 5.33,0.06 7.98,-0.11 4.17,-0.26 5.46,-1.69 5.49,-5.8 0.01,-1.75 0.02,-3.5 0,-5.24 -0.06,-3.94 -1.48,-5.43 -5.45,-5.47 -6.48,-0.06 -12.97,-0.02 -19.46,-0.02 z"
   id="path60" />
	<path
   class="st1"
   d="m 104.82,45.16 c 3.54,2.84 7.07,5.69 10.62,8.52 6.63,5.28 13.27,10.55 19.89,15.85 0.54,0.43 1.59,0.75 1.23,1.61 -0.33,0.78 -1.33,0.4 -2.03,0.4 -6.57,0.02 -13.14,-0.02 -19.71,0.04 -1.43,0.01 -2.49,-0.41 -3.56,-1.39 -8.78,-8.02 -17.62,-15.95 -26.4,-23.98 -1.38,-1.26 -2.77,-1.88 -4.67,-1.82 -3.74,0.13 -7.49,0.16 -11.22,-0.01 -2.14,-0.09 -2.65,0.7 -2.62,2.72 0.1,7.32 -0.03,14.64 0.09,21.96 0.03,2 -0.59,2.59 -2.54,2.53 -4.07,-0.13 -8.15,-0.1 -12.22,-0.01 -1.67,0.04 -2.35,-0.4 -2.34,-2.22 0.05,-22.37 0.05,-44.75 0,-67.12 0,-1.79 0.61,-2.25 2.31,-2.24 21.37,0.05 42.74,0.02 64.11,0.07 1.73,0 3.48,0.3 5.17,0.69 6.41,1.48 8.88,4.47 9.48,11.06 0.58,6.48 0.42,12.97 0.2,19.44 -0.3,8.89 -4.75,12.95 -13.86,13.16 -3.88,0.09 -7.76,0.02 -11.64,0.02 -0.1,0.24 -0.2,0.48 -0.29,0.72 z M 88.61,12.52 c 0,-0.01 0,-0.02 0,-0.03 -6.66,0 -13.31,0.05 -19.97,-0.04 -1.67,-0.02 -2.15,0.53 -2.12,2.14 0.08,5.24 0.06,10.49 0.01,15.73 -0.02,1.48 0.47,2.08 2.01,2.07 12.48,-0.04 24.96,-0.01 37.44,-0.04 1.24,0 2.49,-0.2 3.72,-0.4 3.17,-0.52 4.5,-1.97 4.63,-5.19 0.1,-2.41 0.04,-4.83 0.03,-7.24 -0.01,-5.3 -1.52,-6.92 -6.78,-6.99 -6.32,-0.07 -12.64,-0.01 -18.97,-0.01 z"
   id="path62" />
	<path
   class="st2"
   d="m 352,71.82 c -2.33,0 -4.66,-0.09 -6.99,0.03 -1.71,0.09 -2.77,-0.51 -3.59,-2.03 -2.13,-3.95 -4.45,-7.8 -6.58,-11.75 -0.79,-1.47 -1.67,-2.17 -3.47,-2.16 -14.31,0.08 -28.62,0.07 -42.92,0.01 -1.73,-0.01 -2.66,0.55 -3.47,2.1 -2.12,4.05 -4.52,7.95 -6.71,11.97 -0.68,1.25 -1.53,1.86 -2.94,1.85 -4.41,-0.03 -8.82,-0.03 -13.23,0.01 -1.82,0.01 -2.2,-0.41 -1.18,-2.13 10.44,-17.5 20.81,-35.03 31.21,-52.56 2.97,-5.01 5.98,-9.99 8.88,-15.04 0.83,-1.44 1.76,-2.12 3.53,-2.06 4.15,0.15 8.32,0.11 12.48,0.01 1.55,-0.04 2.39,0.54 3.17,1.83 13.49,22.45 27.03,44.88 40.55,67.32 1.36,2.26 1.16,2.59 -1.5,2.61 -2.42,0 -4.83,-0.01 -7.24,-0.01 z m -42.09,-28.9 c 4.66,0 9.31,-0.08 13.96,0.03 2.26,0.06 2.35,-0.59 1.34,-2.37 -4.68,-8.24 -9.28,-16.52 -13.93,-24.78 -0.39,-0.7 -0.61,-1.8 -1.52,-1.82 -0.94,-0.02 -1.14,1.11 -1.51,1.8 -4.5,8.33 -8.92,16.72 -13.48,25.02 -1.13,2.05 -0.29,2.15 1.43,2.13 4.57,-0.04 9.14,-0.01 13.71,-0.01 z"
   id="path64" />
	<path
   class="st3"
   d="m 17.51,36.04 c 0,11.15 -0.04,22.29 0.04,33.44 0.01,1.9 -0.55,2.43 -2.4,2.37 C 10.83,71.73 6.5,71.76 2.18,71.83 0.6,71.87 0,71.38 0,69.71 0.05,47.16 0.05,24.62 0,2.07 0,0.36 0.61,-0.01 2.18,0.02 6.42,0.11 10.67,0.16 14.9,0 c 2.04,-0.07 2.68,0.47 2.66,2.6 -0.11,11.15 -0.05,22.3 -0.05,33.44 z"
   id="path66" />
</g>
</svg>
